<svg width="32" height="32" viewBox="0 0 64 64" fill="none" xmlns="http://www.w3.org/2000/svg">
    <path
        d="M13.8755 16.2115H22.5559C23.5044 16.2115 24.2745 15.4414 24.2745 14.4929V5.8125L13.8755 16.2115Z"
        fill="#6475DC" />
    <path
        d="M18.5472 39.4039C18.134 39.4039 17.7986 39.7393 17.7986 40.1524V55.1072C17.7986 55.5204 18.134 55.8558 18.5472 55.8558H51.2528V59.4466H12.8164V17.707H22.556C24.3324 17.707 25.7734 16.266 25.7734 14.4896V4.75H51.2528V39.4039C49.3276 39.4039 20.4772 39.4039 18.5472 39.4039ZM20.307 20.9409C19.8939 20.9409 19.5585 21.2763 19.5585 21.6894C19.5585 22.1025 19.8939 22.438 20.307 22.438H43.7621C44.1753 22.438 44.5107 22.1025 44.5107 21.6894C44.5107 21.2763 44.1753 20.9409 43.7621 20.9409H20.307ZM20.307 27.402C19.8939 27.402 19.5585 27.7375 19.5585 28.1506C19.5585 28.5637 19.8939 28.8991 20.307 28.8991H43.7621C44.1753 28.8991 44.5107 28.5637 44.5107 28.1506C44.5107 27.7375 44.1753 27.402 43.7621 27.402H20.307ZM20.307 33.8615C19.8939 33.8615 19.5585 34.1969 19.5585 34.6101C19.5585 35.0232 19.8939 35.3586 20.307 35.3586H43.7621C44.1753 35.3586 44.5107 35.0232 44.5107 34.6101C44.5107 34.1969 44.1753 33.8615 43.7621 33.8615H20.307Z"
        fill="#D4DBFF" />
    <rect x="17.125" y="39.125" width="34.125" height="17.625" fill="#D4DBFF" />
    <rect x="20.125" y="34.125" width="23.875" height="1" rx="0.5" fill="#6475DC" />
    <rect x="20.125" y="21.25" width="23.875" height="1" rx="0.5" fill="#6475DC" />
    <rect x="20.125" y="27.625" width="23.875" height="1" rx="0.5" fill="#6475DC" />
    <rect x="12.875" y="54.75" width="38.375" height="2" fill="#6475DC" />
</svg>