<svg width="32" height="32" viewBox="0 0 32 32" fill="none" xmlns="http://www.w3.org/2000/svg">
    <g clip-path="url(#clip0_1947_29321)">
        <path
            d="M27.0455 8.30872H27.041L26.8496 8.42134V11.7372H29.755L29.9139 11.6019V11.1772C29.9139 9.59953 28.6231 8.30872 27.0455 8.30872Z"
            fill="#FFA90F" />
        <path
            d="M23.2036 0.461563L22.9983 0H8.91964C8.33221 0 7.85596 0.47625 7.85596 1.06369V2.89994L8.29827 3.26238H20.1013L23.9763 7.02894V11.8257H26.7341L27.0409 11.6018V4.04256L26.5624 3.83113L23.2036 0.461563Z"
            fill="#6475DC" />
        <path
            d="M11.1552 1.06369C11.1552 0.476187 11.6315 0 12.2189 0H8.91964C8.33221 0 7.85596 0.47625 7.85596 1.06369V2.89994L8.29827 3.26238H11.5975L11.1552 2.89994V1.06369Z"
            fill="#BCC2E6" />
        <path
            d="M4.95881 8.30872H4.9C3.35225 8.30872 2.08594 9.57503 2.08594 11.1228V11.6018L2.36394 11.6788H5.17544V8.48978L4.95881 8.30872Z"
            fill="#FFA90F" />
        <path d="M22.998 0V2.97887C22.998 3.56637 23.4743 4.04256 24.0617 4.04256H27.0406L22.998 0Z"
            fill="#BCC2E6" />
        <path
            d="M20.3493 3.50921L20.1014 2.89996H6.02267C5.43523 2.89996 4.95898 3.37621 4.95898 3.96365V11.6019L5.37617 12.0191H22.9984L24.1439 11.6019V6.94259L23.5471 6.66415L20.3493 3.50921Z"
            fill="#DBEDFF" />
        <path
            d="M8.25817 3.96371C8.25817 3.37621 8.73442 2.90002 9.32186 2.90002H6.02267C5.43523 2.90002 4.95898 3.37627 4.95898 3.96371V11.6019L5.37617 12.0191H8.67542L8.25823 11.6019V3.96371H8.25817Z"
            fill="#D5DBFF" />
        <path
            d="M20.9193 10.1162H7.63522C7.36853 10.1162 7.15234 9.90001 7.15234 9.63333C7.15234 9.36658 7.36853 9.15045 7.63522 9.15045H20.9193C21.186 9.15045 21.4022 9.36664 21.4022 9.63333C21.4022 9.90001 21.186 10.1162 20.9193 10.1162Z"
            fill="#A9B4FA" />
        <path
            d="M18.816 8.33745H7.63522C7.36853 8.33745 7.15234 8.12127 7.15234 7.85458C7.15234 7.58789 7.36853 7.3717 7.63522 7.3717H18.816C19.0827 7.3717 19.2988 7.58789 19.2988 7.85458C19.2988 8.12127 19.0827 8.33745 18.816 8.33745Z"
            fill="#A9B4FA" />
        <path
            d="M20.1011 2.89996V5.87884C20.1011 6.46634 20.5773 6.94253 21.1648 6.94253H24.1436L20.1011 2.89996Z"
            fill="#D5DBFF" />
        <path
            d="M24.7365 2.97887V1.73844L22.998 0V2.97887C22.998 3.56637 23.4743 4.04256 24.0617 4.04256H25.8002C25.2127 4.04256 24.7365 3.56637 24.7365 2.97887Z"
            fill="#A8B4FA" />
        <path
            d="M21.8395 5.87884V4.6384L20.1011 2.89996V5.87884C20.1011 6.46634 20.5773 6.94253 21.1648 6.94253H22.9032C22.3157 6.94259 21.8395 6.46634 21.8395 5.87884Z"
            fill="#A9B4FA" />
        <path
            d="M29.9137 11.6019H2.08594V31.1449C2.08594 31.6172 2.46881 32.0001 2.94113 32.0001H29.0586C29.5309 32.0001 29.9138 31.6172 29.9138 31.1449L29.9137 11.6019Z"
            fill="#FFD086" />
        <path
            d="M6.18731 31.1448V11.6019H2.08594V31.1449C2.08594 31.6172 2.46881 32.0001 2.94113 32.0001H7.0425C6.57019 32 6.18731 31.6171 6.18731 31.1448Z"
            fill="#FFC365" />
        <path
            d="M26.795 20.1235H16.5473C16.2451 20.1235 16 20.3686 16 20.6708V28.7372C16 29.0395 16.2451 29.2845 16.5473 29.2845H26.795C27.0972 29.2845 27.3423 29.0395 27.3423 28.7372V20.6708C27.3422 20.3685 27.0972 20.1235 26.795 20.1235Z"
            fill="#DBEDFF" />
        <path
            d="M18.5716 28.7372V20.6708C18.5716 20.3685 18.8167 20.1235 19.1189 20.1235H16.5473C16.2451 20.1235 16 20.3685 16 20.6708V28.7372C16 29.0394 16.2451 29.2845 16.5473 29.2845H19.1189C18.8167 29.2844 18.5716 29.0394 18.5716 28.7372Z"
            fill="#D5DBFF" />
        <path
            d="M25.0831 27.855H18.2583C17.9916 27.855 17.7754 27.6388 17.7754 27.3722C17.7754 27.1055 17.9916 26.8893 18.2583 26.8893H25.0832C25.3499 26.8893 25.5661 27.1055 25.5661 27.3722C25.5661 27.6388 25.3498 27.855 25.0831 27.855Z"
            fill="#A9B4FA" />
        <path
            d="M25.0831 26.0763H18.2583C17.9916 26.0763 17.7754 25.8602 17.7754 25.5935C17.7754 25.3267 17.9916 25.1106 18.2583 25.1106H25.0832C25.3499 25.1106 25.5661 25.3268 25.5661 25.5935C25.5661 25.8602 25.3498 26.0763 25.0831 26.0763Z"
            fill="#A9B4FA" />
        <path
            d="M25.0831 24.2975H18.2583C17.9916 24.2975 17.7754 24.0814 17.7754 23.8147C17.7754 23.548 17.9916 23.3318 18.2583 23.3318H25.0832C25.3499 23.3318 25.5661 23.548 25.5661 23.8147C25.5661 24.0814 25.3498 24.2975 25.0831 24.2975Z"
            fill="#A9B4FA" />
        <path
            d="M25.0831 22.5187H18.2583C17.9916 22.5187 17.7754 22.3025 17.7754 22.0359C17.7754 21.7691 17.9916 21.553 18.2583 21.553H25.0832C25.3499 21.553 25.5661 21.7692 25.5661 22.0359C25.5661 22.3026 25.3498 22.5187 25.0831 22.5187Z"
            fill="#A9B4FA" />
    </g>
    <defs>
        <clipPath id="clip0_1947_29321">
            <rect width="32" height="32" fill="white" />
        </clipPath>
    </defs>
</svg>