<svg width="24" height="25" viewBox="0 0 24 25" fill="none" xmlns="http://www.w3.org/2000/svg">
    <g clip-path="url(#clip0_1947_29240)">
        <path d="M14.25 3.5V8.75H19.5" stroke="white" stroke-linecap="round" stroke-linejoin="round" />
        <path
            d="M18.75 21.5C18.9489 21.5 19.1397 21.421 19.2803 21.2803C19.421 21.1397 19.5 20.9489 19.5 20.75V8.75L14.25 3.5H5.25C5.05109 3.5 4.86032 3.57902 4.71967 3.71967C4.57902 3.86032 4.5 4.05109 4.5 4.25V20.75C4.5 20.9489 4.57902 21.1397 4.71967 21.2803C4.86032 21.421 5.05109 21.5 5.25 21.5H18.75Z"
            stroke="white" stroke-linecap="round" stroke-linejoin="round" />
        <path d="M9.75 21.5V11" stroke="white" stroke-linecap="round" stroke-linejoin="round" />
        <path d="M8.25 15.5H11.25" stroke="white" stroke-linecap="round" stroke-linejoin="round" />
        <path d="M8.25 12.5H11.25" stroke="white" stroke-linecap="round" stroke-linejoin="round" />
        <path d="M8.25 18.5H11.25" stroke="white" stroke-linecap="round" stroke-linejoin="round" />
    </g>
    <defs>
        <clipPath id="clip0_1947_29240">
            <rect width="24" height="24" fill="white" transform="translate(0 0.5)" />
        </clipPath>
    </defs>
</svg>