<svg width="205" height="40" viewBox="0 0 205 40" fill="none" xmlns="http://www.w3.org/2000/svg">
<path d="M2.57715 4.88013L26.745 4.74675" stroke="#FFAD00" stroke-width="3"/>
<path d="M6.16595 32.2783L29.4079 32.1331" stroke="#FFAD00" stroke-width="3"/>
<path d="M3.29749 30.958L29.8777 6.31443" stroke="#FFAD00" stroke-width="3"/>
<path d="M33.9154 2.26555C33.8495 2.13216 33.746 2.02094 33.6177 1.94555L30.3688 0.0966932C30.2562 0.0333018 30.1292 0 29.9999 0C29.8707 0 29.7437 0.0333018 29.6311 0.0966932L26.3822 1.94555C26.2539 2.02094 26.1504 2.13216 26.0845 2.26555C26.028 2.37072 25.999 2.48841 26 2.60776V6.27881C26.0006 6.41291 26.0362 6.54453 26.1032 6.66066C26.1702 6.7768 26.2664 6.87344 26.3822 6.94103L29.6311 8.78988C29.7435 8.85395 29.8706 8.88764 29.9999 8.88764C30.1293 8.88764 30.2564 8.85395 30.3688 8.78988L33.6177 6.94103C33.7335 6.87344 33.8296 6.7768 33.8967 6.66066C33.9637 6.54453 33.9993 6.41291 33.9999 6.27881V2.60776C34.0009 2.48841 33.9718 2.37072 33.9154 2.26555Z" fill="#1584E8"/>
<path d="M29.9999 4.4785V8.92284C29.8708 8.92091 29.7441 8.88733 29.631 8.82506L26.3822 6.97622C26.2664 6.90863 26.1702 6.812 26.1032 6.69586C26.0362 6.57972 26.0006 6.44811 26 6.31401V2.64299C25.999 2.52364 26.028 2.40596 26.0845 2.30078L29.9999 4.4785Z" fill="#78BCEE"/>
<path d="M33.9815 2.65886V6.32988C33.9809 6.46397 33.9454 6.59559 33.8783 6.71173C33.8113 6.82787 33.7151 6.9245 33.5993 6.99209L30.3505 8.84093C30.2374 8.9032 30.1107 8.93678 29.9816 8.93871V4.49437L33.8971 2.31665C33.9535 2.42183 33.9825 2.53951 33.9815 2.65886Z" fill="#ABD8F9"/>
<path d="M7.91553 30.2656C7.84956 30.1322 7.74606 30.021 7.61775 29.9456L4.36889 28.0967C4.25628 28.0333 4.12923 28 4 28C3.87077 28 3.74372 28.0333 3.63111 28.0967L0.382246 29.9456C0.25394 30.021 0.150445 30.1322 0.0844698 30.2656C0.0280477 30.3708 -0.00099243 30.4884 2.58869e-05 30.6078V34.2789C0.000616294 34.413 0.0361855 34.5446 0.103219 34.6608C0.170252 34.7769 0.266429 34.8735 0.382246 34.9411L3.63111 36.79C3.7435 36.8541 3.87064 36.8878 4 36.8878C4.12936 36.8878 4.2565 36.8541 4.36889 36.79L7.61775 34.9411C7.73357 34.8735 7.82975 34.7769 7.89678 34.6608C7.96381 34.5446 7.99938 34.413 7.99997 34.2789V30.6078C8.00099 30.4884 7.97195 30.3708 7.91553 30.2656Z" fill="#1584E8"/>
<path d="M3.99996 32.4785V36.9229C3.87086 36.921 3.74419 36.8874 3.63108 36.8251L0.382242 34.9763C0.266426 34.9087 0.17025 34.8121 0.103218 34.6959C0.0361852 34.5798 0.000616289 34.4482 2.58866e-05 34.3141V30.643C-0.000992422 30.5236 0.0280474 30.406 0.0844691 30.3008L3.99996 32.4785Z" fill="#78BCEE"/>
<path d="M7.98254 30.6591V34.3302C7.98195 34.4643 7.94638 34.5959 7.87935 34.712C7.81232 34.8282 7.71614 34.9248 7.60033 34.9924L4.35149 36.8413C4.23838 36.9035 4.11171 36.9371 3.9826 36.939V32.4946L7.8981 30.3169C7.95452 30.4221 7.98356 30.5398 7.98254 30.6591Z" fill="#ABD8F9"/>
<path d="M7.91552 2.26557C7.84955 2.13218 7.74605 2.02096 7.61775 1.94558L4.36888 0.0966943C4.25627 0.0333023 4.12922 0 4 0C3.87077 0 3.74372 0.0333023 3.63111 0.0966943L0.382245 1.94558C0.25394 2.02096 0.150445 2.13218 0.0844697 2.26557C0.0280477 2.37075 -0.000992429 2.48844 2.58868e-05 2.6078V6.27889C0.000616294 6.41299 0.0361855 6.54461 0.103219 6.66074C0.170252 6.77688 0.266429 6.87352 0.382245 6.94111L3.63111 8.78999C3.7435 8.85406 3.87063 8.88775 4 8.88775C4.12936 8.88775 4.25649 8.85406 4.36888 8.78999L7.61775 6.94111C7.73356 6.87352 7.82974 6.77688 7.89677 6.66074C7.96381 6.54461 7.99938 6.41299 7.99997 6.27889V2.6078C8.00099 2.48844 7.97194 2.37075 7.91552 2.26557Z" fill="#1584E8"/>
<path d="M3.99996 4.47609V8.92048C3.87085 8.91855 3.74419 8.88497 3.63108 8.8227L0.382242 6.97383C0.266426 6.90625 0.17025 6.80961 0.103218 6.69347C0.0361852 6.57733 0.000616289 6.44571 2.58866e-05 6.31162V2.64056C-0.000992421 2.52121 0.0280474 2.40352 0.084469 2.29834L3.99996 4.47609Z" fill="#78BCEE"/>
<path d="M7.98254 2.65862V6.32969C7.98195 6.46378 7.94638 6.5954 7.87935 6.71154C7.81232 6.82768 7.71614 6.92431 7.60032 6.9919L4.35149 8.84076C4.23838 8.90304 4.11171 8.93661 3.9826 8.93854V4.49416L7.8981 2.31641C7.95452 2.42158 7.98356 2.53927 7.98254 2.65862Z" fill="#ABD8F9"/>
<path d="M33.9153 30.2655C33.8493 30.1321 33.7458 30.0209 33.6175 29.9455L30.3687 28.0967C30.2561 28.0333 30.1291 28 29.9999 28C29.8706 28 29.7436 28.0333 29.631 28.0967L26.3822 29.9455C26.2539 30.0209 26.1504 30.1321 26.0845 30.2655C26.028 30.3707 25.999 30.4884 26 30.6077V34.2787C26.0006 34.4128 26.0362 34.5444 26.1032 34.6605C26.1702 34.7767 26.2664 34.8733 26.3822 34.9409L29.631 36.7897C29.7434 36.8538 29.8705 36.8875 29.9999 36.8875C30.1292 36.8875 30.2564 36.8538 30.3687 36.7897L33.6175 34.9409C33.7333 34.8733 33.8295 34.7767 33.8965 34.6605C33.9636 34.5444 33.9991 34.4128 33.9997 34.2787V30.6077C34.0007 30.4884 33.9717 30.3707 33.9153 30.2655Z" fill="#1584E8"/>
<path d="M29.9998 32.4782V36.9225C29.8707 36.9205 29.7441 36.887 29.631 36.8247L26.3822 34.9759C26.2664 34.9083 26.1702 34.8117 26.1032 34.6955C26.0362 34.5794 26.0006 34.4478 26 34.3137V30.6427C25.999 30.5234 26.028 30.4057 26.0845 30.3005L29.9998 32.4782Z" fill="#78BCEE"/>
<path d="M33.9814 30.6589V34.3298C33.9808 34.4639 33.9452 34.5955 33.8782 34.7116C33.8112 34.8278 33.715 34.9244 33.5992 34.992L30.3504 36.8408C30.2373 36.9031 30.1107 36.9366 29.9816 36.9386V32.4943L33.8969 30.3167C33.9534 30.4218 33.9824 30.5395 33.9814 30.6589Z" fill="#ABD8F9"/>
<g clip-path="url(#clip0_1256_57180)">
<path d="M4.17504 2.21873C4.29786 2.13513 4.29938 1.99741 4.17844 1.91112C4.0575 1.82484 3.8599 1.82265 3.73709 1.90625C3.61427 1.98985 3.61275 2.12757 3.73369 2.21386C3.85463 2.30015 4.05223 2.30233 4.17504 2.21873Z" stroke="white" stroke-width="0.2" stroke-linecap="round" stroke-linejoin="round"/>
<path d="M4.17505 2.21875L4.43782 2.40624" stroke="white" stroke-width="0.2" stroke-linecap="round" stroke-linejoin="round"/>
<path d="M4.27622 1.05079L2.49721 2.26172C2.44809 2.29516 2.44748 2.35025 2.49586 2.38476L3.72214 3.25971C3.77051 3.29423 3.84955 3.2951 3.89868 3.26166L5.67769 2.05073C5.72681 2.01729 5.72742 1.9622 5.67905 1.92768L4.45277 1.05274C4.40439 1.01822 4.32535 1.01735 4.27622 1.05079Z" stroke="white" stroke-width="0.2" stroke-linecap="round" stroke-linejoin="round"/>
<path d="M2.94195 1.95895L2.59158 1.70897C2.47543 1.62609 2.41089 1.51471 2.41217 1.39934C2.41344 1.28396 2.48042 1.17404 2.59838 1.09375C2.71633 1.01346 2.8756 0.969382 3.04114 0.97121C3.20668 0.973038 3.36493 1.02062 3.48109 1.1035L3.83145 1.35348" stroke="white" stroke-width="0.2" stroke-linecap="round" stroke-linejoin="round"/>
</g>
<g clip-path="url(#clip1_1256_57180)">
<path d="M30.175 2.21873C30.2979 2.13513 30.2994 1.99741 30.1784 1.91112C30.0575 1.82484 29.8599 1.82265 29.7371 1.90625C29.6143 1.98985 29.6127 2.12757 29.7337 2.21386C29.8546 2.30015 30.0522 2.30233 30.175 2.21873Z" stroke="white" stroke-width="0.2" stroke-linecap="round" stroke-linejoin="round"/>
<path d="M30.175 2.21875L30.4378 2.40624" stroke="white" stroke-width="0.2" stroke-linecap="round" stroke-linejoin="round"/>
<path d="M30.2762 1.05079L28.4972 2.26172C28.4481 2.29516 28.4475 2.35025 28.4959 2.38476L29.7221 3.25971C29.7705 3.29423 29.8496 3.2951 29.8987 3.26166L31.6777 2.05073C31.7268 2.01729 31.7274 1.9622 31.679 1.92768L30.4528 1.05274C30.4044 1.01822 30.3253 1.01735 30.2762 1.05079Z" stroke="white" stroke-width="0.2" stroke-linecap="round" stroke-linejoin="round"/>
<path d="M28.9419 1.95895L28.5916 1.70897C28.4754 1.62609 28.4109 1.51471 28.4122 1.39934C28.4134 1.28396 28.4804 1.17404 28.5984 1.09375C28.7163 1.01346 28.8756 0.969382 29.0411 0.97121C29.2067 0.973038 29.3649 1.02062 29.4811 1.1035L29.8315 1.35348" stroke="white" stroke-width="0.2" stroke-linecap="round" stroke-linejoin="round"/>
</g>
<g clip-path="url(#clip2_1256_57180)">
<path d="M4.46087 30.3315C4.58369 30.2479 4.58521 30.1102 4.46427 30.0239C4.34333 29.9376 4.14573 29.9354 4.02291 30.019C3.9001 30.1026 3.89858 30.2404 4.01952 30.3267C4.14045 30.4129 4.33806 30.4151 4.46087 30.3315Z" stroke="white" stroke-width="0.2" stroke-linecap="round" stroke-linejoin="round"/>
<path d="M4.04718 29.9431L4.30995 30.1306" stroke="white" stroke-width="0.2" stroke-linecap="round" stroke-linejoin="round"/>
<path d="M4.56205 29.1636L2.78304 30.3745C2.73392 30.408 2.73331 30.463 2.78168 30.4976L4.00797 31.3725C4.05634 31.407 4.13538 31.4079 4.18451 31.3745L5.96352 30.1635C6.01264 30.1301 6.01325 30.075 5.96488 30.0405L4.73859 29.1655C4.69022 29.131 4.61118 29.1301 4.56205 29.1636Z" stroke="white" stroke-width="0.2" stroke-linecap="round" stroke-linejoin="round"/>
<path d="M3.22778 30.0717L2.87741 29.8218C2.76126 29.7389 2.69672 29.6275 2.69799 29.5121C2.69927 29.3968 2.76625 29.2868 2.88421 29.2065C3.00216 29.1263 3.16143 29.0822 3.32697 29.084C3.49251 29.0858 3.65076 29.1334 3.76692 29.2163L4.11728 29.4663" stroke="white" stroke-width="0.2" stroke-linecap="round" stroke-linejoin="round"/>
</g>
<g clip-path="url(#clip3_1256_57180)">
<path d="M30.1402 30.3315C30.263 30.2479 30.2645 30.1102 30.1436 30.0239C30.0227 29.9376 29.825 29.9354 29.7022 30.019C29.5794 30.1026 29.5779 30.2404 29.6988 30.3267C29.8198 30.4129 30.0174 30.4151 30.1402 30.3315Z" stroke="white" stroke-width="0.2" stroke-linecap="round" stroke-linejoin="round"/>
<path d="M30.1402 30.3315L30.403 30.519" stroke="white" stroke-width="0.2" stroke-linecap="round" stroke-linejoin="round"/>
<path d="M30.2414 29.1636L28.4624 30.3745C28.4132 30.408 28.4126 30.463 28.461 30.4976L29.6873 31.3725C29.7357 31.407 29.8147 31.4079 29.8638 31.3745L31.6428 30.1635C31.692 30.1301 31.6926 30.075 31.6442 30.0405L30.4179 29.1655C30.3695 29.131 30.2905 29.1301 30.2414 29.1636Z" stroke="white" stroke-width="0.2" stroke-linecap="round" stroke-linejoin="round"/>
<path d="M28.9071 30.0717L28.5567 29.8218C28.4406 29.7389 28.376 29.6275 28.3773 29.5121C28.3786 29.3968 28.4456 29.2868 28.5635 29.2065C28.6815 29.1263 28.8407 29.0822 29.0063 29.084C29.1718 29.0858 29.3301 29.1334 29.4462 29.2163L29.7966 29.4663" stroke="white" stroke-width="0.2" stroke-linecap="round" stroke-linejoin="round"/>
</g>
<path d="M44.144 32.32C42.416 32.32 40.88 31.9573 39.536 31.232C38.2133 30.4853 37.168 29.472 36.4 28.192C35.6533 26.912 35.28 25.44 35.28 23.776C35.28 22.4533 35.4933 21.248 35.92 20.16C36.3467 19.072 36.9333 18.1333 37.68 17.344C38.448 16.5333 39.3547 15.9147 40.4 15.488C41.4667 15.04 42.6187 14.816 43.856 14.816C44.944 14.816 45.9573 15.0293 46.896 15.456C47.8347 15.8613 48.6453 16.4267 49.328 17.152C50.032 17.8773 50.5653 18.7413 50.928 19.744C51.312 20.7253 51.4933 21.8027 51.472 22.976L51.44 24.384H37.712L36.976 21.76H48.592L48.112 22.304V21.536C48.048 20.832 47.8133 20.2027 47.408 19.648C47.0027 19.0933 46.4907 18.656 45.872 18.336C45.2533 18.016 44.5813 17.856 43.856 17.856C42.704 17.856 41.7333 18.08 40.944 18.528C40.1547 18.9547 39.5573 19.5947 39.152 20.448C38.7467 21.28 38.544 22.3147 38.544 23.552C38.544 24.7253 38.7893 25.7493 39.28 26.624C39.7707 27.4773 40.464 28.1387 41.36 28.608C42.256 29.0773 43.2907 29.312 44.464 29.312C45.296 29.312 46.064 29.1733 46.768 28.896C47.4933 28.6187 48.272 28.1173 49.104 27.392L50.768 29.728C50.256 30.24 49.6267 30.688 48.88 31.072C48.1547 31.456 47.376 31.7653 46.544 32C45.7333 32.2133 44.9333 32.32 44.144 32.32ZM62.19 32.32C60.6327 32.32 59.2353 31.936 57.998 31.168C56.782 30.4 55.8113 29.3547 55.086 28.032C54.382 26.7093 54.03 25.2267 54.03 23.584C54.03 21.9413 54.382 20.4587 55.086 19.136C55.8113 17.8133 56.782 16.768 57.998 16C59.2353 15.232 60.6327 14.848 62.19 14.848C63.6833 14.848 65.038 15.1573 66.254 15.776C67.4913 16.3733 68.43 17.1947 69.07 18.24L67.246 20.48C66.9047 19.9893 66.4673 19.5413 65.934 19.136C65.4007 18.7307 64.8353 18.4107 64.238 18.176C63.6407 17.9413 63.0647 17.824 62.51 17.824C61.486 17.824 60.5687 18.08 59.758 18.592C58.9687 19.0827 58.3393 19.7653 57.87 20.64C57.4007 21.5147 57.166 22.496 57.166 23.584C57.166 24.672 57.4113 25.6533 57.902 26.528C58.3927 27.3813 59.0433 28.064 59.854 28.576C60.6647 29.088 61.5607 29.344 62.542 29.344C63.118 29.344 63.6727 29.248 64.206 29.056C64.7607 28.864 65.294 28.576 65.806 28.192C66.318 27.808 66.798 27.3387 67.246 26.784L69.07 29.024C68.3873 29.984 67.406 30.7733 66.126 31.392C64.8673 32.0107 63.5553 32.32 62.19 32.32ZM78.067 32.32C76.8723 32.32 75.827 32.0427 74.931 31.488C74.0563 30.9333 73.3737 30.1547 72.883 29.152C72.4137 28.1493 72.179 26.9547 72.179 25.568V15.2H75.475V24.672C75.475 25.6533 75.6243 26.5067 75.923 27.232C76.243 27.936 76.691 28.48 77.267 28.864C77.8643 29.248 78.579 29.44 79.411 29.44C80.0297 29.44 80.595 29.344 81.107 29.152C81.619 28.9387 82.0563 28.6507 82.419 28.288C82.803 27.9253 83.1017 27.488 83.315 26.976C83.5283 26.464 83.635 25.9093 83.635 25.312V15.2H86.931V32H83.635V28.48L84.211 28.096C83.955 28.8853 83.5177 29.6 82.899 30.24C82.3017 30.88 81.587 31.392 80.755 31.776C79.923 32.1387 79.027 32.32 78.067 32.32ZM91.554 32V15.2H94.882V20.48L94.562 19.2C94.7967 18.3893 95.1913 17.6533 95.746 16.992C96.322 16.3307 96.9727 15.808 97.698 15.424C98.4447 15.04 99.2127 14.848 100.002 14.848C100.365 14.848 100.706 14.88 101.026 14.944C101.367 15.008 101.634 15.0827 101.826 15.168L100.962 18.752C100.706 18.6453 100.418 18.56 100.098 18.496C99.7993 18.4107 99.5007 18.368 99.202 18.368C98.626 18.368 98.0713 18.4853 97.538 18.72C97.026 18.9333 96.5673 19.2427 96.162 19.648C95.778 20.032 95.4687 20.4907 95.234 21.024C94.9993 21.536 94.882 22.1013 94.882 22.72V32H91.554ZM111.582 32.32C109.854 32.32 108.318 31.9573 106.974 31.232C105.651 30.4853 104.606 29.472 103.838 28.192C103.091 26.912 102.718 25.44 102.718 23.776C102.718 22.4533 102.931 21.248 103.358 20.16C103.784 19.072 104.371 18.1333 105.118 17.344C105.886 16.5333 106.792 15.9147 107.838 15.488C108.904 15.04 110.056 14.816 111.294 14.816C112.382 14.816 113.395 15.0293 114.334 15.456C115.272 15.8613 116.083 16.4267 116.766 17.152C117.47 17.8773 118.003 18.7413 118.366 19.744C118.75 20.7253 118.931 21.8027 118.91 22.976L118.878 24.384H105.15L104.414 21.76H116.03L115.55 22.304V21.536C115.486 20.832 115.251 20.2027 114.846 19.648C114.44 19.0933 113.928 18.656 113.31 18.336C112.691 18.016 112.019 17.856 111.294 17.856C110.142 17.856 109.171 18.08 108.382 18.528C107.592 18.9547 106.995 19.5947 106.59 20.448C106.184 21.28 105.982 22.3147 105.982 23.552C105.982 24.7253 106.227 25.7493 106.718 26.624C107.208 27.4773 107.902 28.1387 108.798 28.608C109.694 29.0773 110.728 29.312 111.902 29.312C112.734 29.312 113.502 29.1733 114.206 28.896C114.931 28.6187 115.71 28.1173 116.542 27.392L118.206 29.728C117.694 30.24 117.064 30.688 116.318 31.072C115.592 31.456 114.814 31.7653 113.982 32C113.171 32.2133 112.371 32.32 111.582 32.32ZM129.628 32.32C128.07 32.32 126.673 31.936 125.436 31.168C124.22 30.4 123.249 29.3547 122.524 28.032C121.82 26.7093 121.468 25.2267 121.468 23.584C121.468 21.9413 121.82 20.4587 122.524 19.136C123.249 17.8133 124.22 16.768 125.436 16C126.673 15.232 128.07 14.848 129.628 14.848C131.121 14.848 132.476 15.1573 133.692 15.776C134.929 16.3733 135.868 17.1947 136.508 18.24L134.684 20.48C134.342 19.9893 133.905 19.5413 133.372 19.136C132.838 18.7307 132.273 18.4107 131.676 18.176C131.078 17.9413 130.502 17.824 129.948 17.824C128.924 17.824 128.006 18.08 127.196 18.592C126.406 19.0827 125.777 19.7653 125.308 20.64C124.838 21.5147 124.604 22.496 124.604 23.584C124.604 24.672 124.849 25.6533 125.34 26.528C125.83 27.3813 126.481 28.064 127.292 28.576C128.102 29.088 128.998 29.344 129.98 29.344C130.556 29.344 131.11 29.248 131.644 29.056C132.198 28.864 132.732 28.576 133.244 28.192C133.756 27.808 134.236 27.3387 134.684 26.784L136.508 29.024C135.825 29.984 134.844 30.7733 133.564 31.392C132.305 32.0107 130.993 32.32 129.628 32.32ZM139.617 32V8.32H142.913V18.656L142.337 19.04C142.55 18.2933 142.966 17.6107 143.585 16.992C144.203 16.352 144.939 15.84 145.793 15.456C146.646 15.0507 147.521 14.848 148.417 14.848C149.697 14.848 150.763 15.104 151.617 15.616C152.47 16.1067 153.11 16.864 153.537 17.888C153.963 18.912 154.177 20.2027 154.177 21.76V32H150.881V21.984C150.881 21.024 150.753 20.2347 150.497 19.616C150.241 18.976 149.846 18.5173 149.313 18.24C148.779 17.9413 148.118 17.8133 147.329 17.856C146.689 17.856 146.102 17.9627 145.569 18.176C145.035 18.368 144.566 18.6453 144.161 19.008C143.777 19.3707 143.467 19.7973 143.233 20.288C143.019 20.7573 142.913 21.2693 142.913 21.824V32H141.281C141.003 32 140.726 32 140.449 32C140.171 32 139.894 32 139.617 32ZM165.112 32.32C163.725 32.32 162.456 31.936 161.304 31.168C160.173 30.4 159.266 29.3547 158.584 28.032C157.901 26.7093 157.56 25.216 157.56 23.552C157.56 21.8667 157.901 20.3733 158.584 19.072C159.288 17.7493 160.226 16.7147 161.4 15.968C162.594 15.2213 163.928 14.848 165.4 14.848C166.274 14.848 167.074 14.976 167.8 15.232C168.525 15.488 169.154 15.8507 169.688 16.32C170.242 16.768 170.69 17.2907 171.032 17.888C171.394 18.4853 171.618 19.1253 171.704 19.808L170.968 19.552V15.2H174.296V32H170.968V28L171.736 27.776C171.608 28.352 171.341 28.9173 170.936 29.472C170.552 30.0053 170.05 30.4853 169.432 30.912C168.834 31.3387 168.162 31.68 167.416 31.936C166.69 32.192 165.922 32.32 165.112 32.32ZM165.976 29.28C166.978 29.28 167.864 29.0347 168.632 28.544C169.4 28.0533 169.997 27.3813 170.424 26.528C170.872 25.6533 171.096 24.6613 171.096 23.552C171.096 22.464 170.872 21.4933 170.424 20.64C169.997 19.7867 169.4 19.1147 168.632 18.624C167.864 18.1333 166.978 17.888 165.976 17.888C164.994 17.888 164.12 18.1333 163.352 18.624C162.605 19.1147 162.008 19.7867 161.56 20.64C161.133 21.4933 160.92 22.464 160.92 23.552C160.92 24.6613 161.133 25.6533 161.56 26.528C162.008 27.3813 162.605 28.0533 163.352 28.544C164.12 29.0347 164.994 29.28 165.976 29.28ZM179.442 32V15.2H182.738V32H179.442ZM181.042 11.488C180.338 11.488 179.794 11.3067 179.41 10.944C179.026 10.5813 178.834 10.0693 178.834 9.408C178.834 8.78933 179.026 8.288 179.41 7.904C179.815 7.52 180.359 7.328 181.042 7.328C181.746 7.328 182.29 7.50933 182.674 7.872C183.058 8.23467 183.25 8.74667 183.25 9.408C183.25 10.0267 183.047 10.528 182.642 10.912C182.258 11.296 181.724 11.488 181.042 11.488ZM187.804 32V15.2H191.1V18.656L190.524 19.04C190.737 18.2933 191.153 17.6107 191.772 16.992C192.391 16.352 193.127 15.84 193.98 15.456C194.833 15.0507 195.708 14.848 196.604 14.848C197.884 14.848 198.951 15.104 199.804 15.616C200.657 16.1067 201.297 16.864 201.724 17.888C202.151 18.912 202.364 20.2027 202.364 21.76V32H199.068V21.984C199.068 21.024 198.94 20.2347 198.684 19.616C198.428 18.976 198.033 18.5173 197.5 18.24C196.967 17.9413 196.305 17.8133 195.516 17.856C194.876 17.856 194.289 17.9627 193.756 18.176C193.223 18.368 192.753 18.6453 192.348 19.008C191.964 19.3707 191.655 19.7973 191.42 20.288C191.207 20.7573 191.1 21.2693 191.1 21.824V32H189.468C189.191 32 188.913 32 188.636 32C188.359 32 188.081 32 187.804 32Z" fill="white"/>
<defs>
<clipPath id="clip0_1256_57180">
<rect width="3.44325" height="3.44325" fill="white" transform="matrix(0.826666 -0.562694 0.814037 0.580813 1 1.9375)"/>
</clipPath>
<clipPath id="clip1_1256_57180">
<rect width="3.44325" height="3.44325" fill="white" transform="matrix(0.826666 -0.562694 0.814037 0.580813 27 1.9375)"/>
</clipPath>
<clipPath id="clip2_1256_57180">
<rect width="3.44325" height="3.44325" fill="white" transform="matrix(0.826666 -0.562694 0.814037 0.580813 1.28583 30.0503)"/>
</clipPath>
<clipPath id="clip3_1256_57180">
<rect width="3.44325" height="3.44325" fill="white" transform="matrix(0.826666 -0.562694 0.814037 0.580813 26.9651 30.0503)"/>
</clipPath>
</defs>
</svg>
